<svg width="19" height="15" viewBox="0 0 19 15" fill="none" xmlns="http://www.w3.org/2000/svg">
<path d="M18.9474 1.77577C18.2428 2.07692 17.492 2.27654 16.7092 2.37346C17.5145 1.905 18.1291 1.16885 18.418 0.281538C17.6672 0.717692 16.8383 1.02577 15.9549 1.19769C15.242 0.458077 14.2259 0 13.1175 0C10.967 0 9.23566 1.70077 9.23566 3.78577C9.23566 4.08577 9.26171 4.37423 9.32566 4.64885C6.09632 4.49538 3.23882 2.98731 1.31921 0.69C0.984079 1.25654 0.7875 1.905 0.7875 2.60308C0.7875 3.91385 1.48026 5.07577 2.51289 5.74846C1.88882 5.73692 1.27658 5.56038 0.757895 5.28231C0.757895 5.29385 0.757895 5.30885 0.757895 5.32385C0.757895 7.16308 2.10434 8.69077 3.87 9.04269C3.55382 9.12692 3.20921 9.16731 2.85158 9.16731C2.60289 9.16731 2.35184 9.15346 2.11618 9.10269C2.61947 10.6015 4.04763 11.7035 5.74579 11.7392C4.42421 12.7465 2.74618 13.3535 0.929605 13.3535C0.611053 13.3535 0.305526 13.3396 0 13.3015C1.72066 14.3827 3.75987 15 5.95895 15C13.1068 15 17.0147 9.23077 17.0147 4.23C17.0147 4.06269 17.0088 3.90115 17.0005 3.74077C17.7714 3.20769 18.4192 2.54192 18.9474 1.77577Z" fill="#2E2520"/>
</svg>
